<?xml version="1.0" encoding="utf-8"?>
<!-- Generator: Adobe Illustrator 18.0.0, SVG Export Plug-In . SVG Version: 6.00 Build 0)  -->
<!DOCTYPE svg PUBLIC "-//W3C//DTD SVG 1.1//EN" "http://www.w3.org/Graphics/SVG/1.1/DTD/svg11.dtd">
<svg version="1.1" id="Layer_1" xmlns="http://www.w3.org/2000/svg" xmlns:xlink="http://www.w3.org/1999/xlink" x="0px" y="0px"
	 width="841.9px" height="595.3px" viewBox="0 0 841.9 595.3" enable-background="new 0 0 841.9 595.3" xml:space="preserve">
<g>
	<linearGradient id="SVGID_1_" gradientUnits="userSpaceOnUse" x1="421.012" y1="177.7966" x2="421.012" y2="-62.282">
		<stop  offset="0" style="stop-color:#FBF5AD"/>
		<stop  offset="1" style="stop-color:#6ACCE6"/>
	</linearGradient>
	<rect y="0" fill="url(#SVGID_1_)" width="842" height="595.3"/>
	<g opacity="0.3">
		<polygon fill="#FFFFFF" points="0,58.4 841.9,136.3 841.9,165.6 0,152.9 		"/>
		<polygon fill="#FFFFFF" points="0,19.7 841.9,88.3 841.9,98.4 0,52.2 		"/>
	</g>
	<linearGradient id="SVGID_2_" gradientUnits="userSpaceOnUse" x1="421.012" y1="331.8501" x2="421.012" y2="100.2966">
		<stop  offset="0" style="stop-color:#FBF5AD"/>
		<stop  offset="1" style="stop-color:#6ACCE6"/>
	</linearGradient>
	<path fill="url(#SVGID_2_)" d="M0,317.2V137.9c0,0,70.4,41.6,121.2,34s110.9-69,169.4-76.5c58.5-7.5,150,95.2,208.8,102.1
		s79.2-34.2,113.7-41.9c34.5-7.7,53.8,32,89.9,25.6c36.1-6.3,138.9-53.6,138.9-53.6l0.1,189.5H0z"/>
	<g>
		<g>
			<path fill="#567033" d="M837.6,175.7c-5.3-0.4-8,70.7-8,70.7s2.7-80-2.7-77.6c-5.3,2.4-8.4,77.1-8.4,77.1s-2.7-65.4-6.6-65.2
				c-4,0.2-4.4,61.7-4.4,61.7s0-68.5-4.9-68.5c-4.8,0-7.5,67.9-7.5,69.4c0.1-1.4,2.6-68-3.5-65.8c-6.2,2.2-12.8,67.2-12.8,67.2
				s4-77.4,0-75.8c-4,1.6-11.5,66.5-11.5,66.5s0.4-62.3-3.5-60.6c-4,1.8-7.5,58.3-7.5,58.3s-1.8-66.3-5.3-61.4
				c-3.5,4.9-7.1,63.2-7.1,63.2s1.8-45.5-2.2-42.4c-4,3.1-7.1,36.7-7.1,36.7s3.5-53,0-48.4c-3.5,4.6-11.1,49.3-11.1,49.3
				s8-61.4,3.1-58.8c-4.9,2.7-15,53-15,53s6.2-61,0-58.1c-3.5,1.6-7,29.8-9.4,53.8c-0.4-21-1.4-44-4.3-44.3c-5.3-0.4-8,70.7-8,70.7
				s2.7-80-2.7-77.6c-5.3,2.4-8.4,77.1-8.4,77.1s-2.7-65.4-6.6-65.2c-4,0.2-4.4,61.7-4.4,61.7s0-68.5-4.9-68.5
				c-4.8,0-7.5,67.9-7.5,69.4c0.1-1.4,2.6-68-3.5-65.8c-6.2,2.2-12.8,67.2-12.8,67.2s4-77.4,0-75.8c-4,1.6-11.5,66.5-11.5,66.5
				s0.4-62.3-3.5-60.6s-7.5,58.3-7.5,58.3s-1.8-66.3-5.3-61.4c-3.5,4.9-7.1,63.2-7.1,63.2s1.8-45.5-2.2-42.4
				c-4,3.1-7.1,36.7-7.1,36.7s3.5-53,0-48.4c-3.5,4.6-11.1,49.3-11.1,49.3s8-61.4,3.1-58.8c-4.9,2.7-15,53-15,53s6.2-61,0-58.1
				c-3.5,1.6-7,29.8-9.4,53.8c-0.4-21-1.4-44-4.3-44.3c-5.3-0.4-8,70.7-8,70.7s2.7-80-2.7-77.6c-5.3,2.4-8.4,77.1-8.4,77.1
				s-2.7-65.4-6.6-65.2c-4,0.2-4.4,61.7-4.4,61.7s0-68.5-4.9-68.5c-4.8,0-7.5,67.9-7.5,69.4c0.1-1.4,2.6-68-3.5-65.8
				c-6.2,2.2-12.8,67.2-12.8,67.2s4-77.4,0-75.8c-4,1.6-11.5,66.5-11.5,66.5s0.4-62.3-3.5-60.6c-4,1.8-7.5,58.3-7.5,58.3
				s-1.8-66.3-5.3-61.4c-3.5,4.9-7.1,63.2-7.1,63.2s1.8-45.5-2.2-42.4c-4,3.1-7.1,36.7-7.1,36.7s3.5-53,0-48.4
				c-3.5,4.6-11.1,49.3-11.1,49.3s8-61.4,3.1-58.8c-4.9,2.7-15,53-15,53s6.2-61,0-58.1c-6.2,2.9-12.4,114.1-12.4,114.1h139.7h3.1
				h136.6h3.1H842C842,280.3,842.9,176.1,837.6,175.7z"/>
			<path fill="#6B893A" d="M424.4,197.3c5.3-0.4,8,70.7,8,70.7s-2.7-80,2.7-77.6c5.3,2.4,8.4,77.1,8.4,77.1s2.7-65.4,6.6-65.2
				c4,0.2,4.4,61.7,4.4,61.7s0-68.5,4.9-68.5c4.8,0,7.5,67.9,7.5,69.4c-0.1-1.4-2.6-68,3.5-65.8c6.2,2.2,12.8,67.2,12.8,67.2
				s-4-77.4,0-75.8c4,1.6,11.5,66.5,11.5,66.5s-0.4-62.3,3.5-60.6c4,1.8,7.5,58.3,7.5,58.3s1.8-66.3,5.3-61.4
				c3.5,4.9,7.1,63.2,7.1,63.2s-1.8-45.5,2.2-42.4c4,3.1,7.1,36.7,7.1,36.7s-3.5-53,0-48.4c3.5,4.6,11.1,49.3,11.1,49.3
				s-8-61.4-3.1-58.8c4.9,2.7,15,53,15,53s-6.2-61,0-58.1c3.5,1.6,7,29.8,9.4,53.8c0.4-21,1.4-44,4.3-44.3c5.3-0.4,8,70.7,8,70.7
				s-2.7-80,2.7-77.6c5.3,2.4,8.4,77.1,8.4,77.1s2.7-65.4,6.6-65.2c4,0.2,4.4,61.7,4.4,61.7s0-68.5,4.9-68.5
				c4.8,0,7.5,67.9,7.5,69.4c-0.1-1.4-2.6-68,3.5-65.8c6.2,2.2,12.8,67.2,12.8,67.2s-4-77.4,0-75.8c4,1.6,11.5,66.5,11.5,66.5
				s-0.4-62.3,3.5-60.6c4,1.8,7.5,58.3,7.5,58.3s1.8-66.3,5.3-61.4c3.5,4.9,7.1,63.2,7.1,63.2S656,211,660,214.1
				c4,3.1,7.1,36.7,7.1,36.7s-3.5-53,0-48.4c3.5,4.6,11.1,49.3,11.1,49.3s-8-61.4-3.1-58.8c4.9,2.7,15,53,15,53s-6.2-61,0-58.1
				c3.5,1.6,7,29.8,9.4,53.8c0.4-21,1.4-44,4.3-44.3c5.3-0.4,8,70.7,8,70.7s-2.7-80,2.7-77.6c5.3,2.4,8.4,77.1,8.4,77.1
				s2.7-65.4,6.6-65.2c4,0.2,4.4,61.7,4.4,61.7s0-68.5,4.9-68.5c4.8,0,7.5,67.9,7.5,69.4c-0.1-1.4-2.6-68,3.5-65.8
				c6.2,2.2,12.8,67.2,12.8,67.2s-4-77.4,0-75.8c4,1.6,11.5,66.5,11.5,66.5s-0.4-62.3,3.5-60.6c4,1.8,7.5,58.3,7.5,58.3
				s1.8-66.3,5.3-61.4c3.5,4.9,7.1,63.2,7.1,63.2s-1.8-45.5,2.2-42.4c4,3.1,7.1,36.7,7.1,36.7s-3.5-53,0-48.4
				c3.5,4.6,11.1,49.3,11.1,49.3s-8-61.4-3.1-58.8c4.9,2.7,15,53,15,53s-6.2-61,0-58.1c6.2,2.9,12.4,114.1,12.4,114.1H702.4h-3.1
				H562.7h-3.1H419.9C419.9,301.9,419.1,197.8,424.4,197.3z"/>
			<path fill="#96BE3D" d="M837.6,223.4c-5.3-0.4-8,70.7-8,70.7s2.7-80-2.7-77.6c-5.3,2.4-8.4,77.1-8.4,77.1s-2.7-65.4-6.6-65.2
				c-4,0.2-4.4,61.7-4.4,61.7s0-68.5-4.9-68.5c-4.8,0-7.5,67.9-7.5,69.4c0.1-1.4,2.6-68-3.5-65.8c-6.2,2.2-12.8,67.2-12.8,67.2
				s4-77.4,0-75.8c-4,1.6-11.5,66.5-11.5,66.5s0.4-62.3-3.5-60.6c-4,1.8-7.5,58.3-7.5,58.3s-1.8-66.3-5.3-61.4
				c-3.5,4.9-7.1,63.2-7.1,63.2s1.8-45.5-2.2-42.4c-4,3.1-7.1,36.7-7.1,36.7s3.5-53,0-48.4c-3.5,4.6-11.1,49.3-11.1,49.3
				s8-61.4,3.1-58.8c-4.9,2.7-15,53-15,53s6.2-61,0-58.1c-3.5,1.6-7,29.8-9.4,53.8c-0.4-21-1.4-44-4.3-44.3c-5.3-0.4-8,70.7-8,70.7
				s2.7-80-2.7-77.6c-5.3,2.4-8.4,77.1-8.4,77.1s-2.7-65.4-6.6-65.2c-4,0.2-4.4,61.7-4.4,61.7s0-68.5-4.9-68.5
				c-4.8,0-7.5,67.9-7.5,69.4c0.1-1.4,2.6-68-3.5-65.8c-6.2,2.2-12.8,67.2-12.8,67.2s4-77.4,0-75.8c-4,1.6-11.5,66.5-11.5,66.5
				s0.4-62.3-3.5-60.6s-7.5,58.3-7.5,58.3s-1.8-66.3-5.3-61.4c-3.5,4.9-7.1,63.2-7.1,63.2s1.8-45.5-2.2-42.4
				c-4,3.1-7.1,36.7-7.1,36.7s3.5-53,0-48.4c-3.5,4.6-11.1,49.3-11.1,49.3s8-61.4,3.1-58.8c-4.9,2.7-15,53-15,53s6.2-61,0-58.1
				c-3.5,1.6-7,29.8-9.4,53.8c-0.4-21-1.4-44-4.3-44.3c-5.3-0.4-8,70.7-8,70.7s2.7-80-2.7-77.6c-5.3,2.4-8.4,77.1-8.4,77.1
				s-2.7-65.4-6.6-65.2c-4,0.2-4.4,61.7-4.4,61.7s0-68.5-4.9-68.5c-4.8,0-7.5,67.9-7.5,69.4c0.1-1.4,2.6-68-3.5-65.8
				c-6.2,2.2-12.8,67.2-12.8,67.2s4-77.4,0-75.8c-4,1.6-11.5,66.5-11.5,66.5s0.4-62.3-3.5-60.6c-4,1.8-7.5,58.3-7.5,58.3
				s-1.8-66.3-5.3-61.4c-3.5,4.9-7.1,63.2-7.1,63.2s1.8-45.5-2.2-42.4c-4,3.1-7.1,36.7-7.1,36.7s3.5-53,0-48.4
				c-3.5,4.6-11.1,49.3-11.1,49.3s8-61.4,3.1-58.8c-4.9,2.7-15,53-15,53s6.2-61,0-58.1c-6.2,2.9-12.4,88-12.4,88h139.7h3.1h136.6
				h3.1H842C842,301.9,842.9,223.8,837.6,223.4z"/>
		</g>
		<g>
			<path fill="#567033" d="M417.7,175.7c-5.3-0.4-8,70.7-8,70.7s2.7-80-2.7-77.6c-5.3,2.4-8.4,77.1-8.4,77.1s-2.7-65.4-6.6-65.2
				c-4,0.2-4.4,61.7-4.4,61.7s0-68.5-4.9-68.5c-4.8,0-7.5,67.9-7.5,69.4c0.1-1.4,2.6-68-3.5-65.8c-6.2,2.2-12.8,67.2-12.8,67.2
				s4-77.4,0-75.8c-4,1.6-11.5,66.5-11.5,66.5s0.4-62.3-3.5-60.6c-4,1.8-7.5,58.3-7.5,58.3s-1.8-66.3-5.3-61.4
				c-3.5,4.9-7.1,63.2-7.1,63.2s1.8-45.5-2.2-42.4c-4,3.1-7.1,36.7-7.1,36.7s3.5-53,0-48.4c-3.5,4.6-11.1,49.3-11.1,49.3
				s8-61.4,3.1-58.8c-4.9,2.7-15,53-15,53s6.2-61,0-58.1c-3.5,1.6-7,29.8-9.4,53.8c-0.4-21-1.4-44-4.3-44.3c-5.3-0.4-8,70.7-8,70.7
				s2.7-80-2.7-77.6c-5.3,2.4-8.4,77.1-8.4,77.1s-2.7-65.4-6.6-65.2c-4,0.2-4.4,61.7-4.4,61.7s0-68.5-4.9-68.5
				c-4.8,0-7.5,67.9-7.5,69.4c0.1-1.4,2.6-68-3.5-65.8c-6.2,2.2-12.8,67.2-12.8,67.2s4-77.4,0-75.8c-4,1.6-11.5,66.5-11.5,66.5
				s0.4-62.3-3.5-60.6s-7.5,58.3-7.5,58.3s-1.8-66.3-5.3-61.4c-3.5,4.9-7.1,63.2-7.1,63.2s1.8-45.5-2.2-42.4
				c-4,3.1-7.1,36.7-7.1,36.7s3.5-53,0-48.4c-3.5,4.6-11.1,49.3-11.1,49.3s8-61.4,3.1-58.8c-4.9,2.7-15,53-15,53s6.2-61,0-58.1
				c-3.5,1.6-7,29.8-9.4,53.8c-0.4-21-1.4-44-4.3-44.3c-5.3-0.4-8,70.7-8,70.7s2.7-80-2.7-77.6c-5.3,2.4-8.4,77.1-8.4,77.1
				s-2.7-65.4-6.6-65.2c-4,0.2-4.4,61.7-4.4,61.7s0-68.5-4.9-68.5c-4.8,0-7.5,67.9-7.5,69.4c0.1-1.4,2.6-68-3.5-65.8
				c-6.2,2.2-12.8,67.2-12.8,67.2s4-77.4,0-75.8c-4,1.6-11.5,66.5-11.5,66.5s0.4-62.3-3.5-60.6S57,233.2,57,233.2
				s-1.8-66.3-5.3-61.4c-3.5,4.9-7.1,63.2-7.1,63.2s1.8-45.5-2.2-42.4c-4,3.1-7.1,36.7-7.1,36.7s3.5-53,0-48.4
				c-3.5,4.6-11.1,49.3-11.1,49.3s8-61.4,3.1-58.8c-4.9,2.7-15,53-15,53s6.2-61,0-58.1C6.2,169.1,0,280.3,0,280.3h139.7h3.1h136.6
				h3.1h139.7C422.1,280.3,423,176.1,417.7,175.7z"/>
			<path fill="#6B893A" d="M4.5,197.3c5.3-0.4,8,70.7,8,70.7s-2.7-80,2.7-77.6c5.3,2.4,8.4,77.1,8.4,77.1s2.7-65.4,6.6-65.2
				c4,0.2,4.4,61.7,4.4,61.7s0-68.5,4.9-68.5c4.8,0,7.5,67.9,7.5,69.4c-0.1-1.4-2.6-68,3.5-65.8c6.2,2.2,12.8,67.2,12.8,67.2
				s-4-77.4,0-75.8c4,1.6,11.5,66.5,11.5,66.5s-0.4-62.3,3.5-60.6c4,1.8,7.5,58.3,7.5,58.3s1.8-66.3,5.3-61.4
				c3.5,4.9,7.1,63.2,7.1,63.2s-1.8-45.5,2.2-42.4c4,3.1,7.1,36.7,7.1,36.7s-3.5-53,0-48.4c3.5,4.6,11.1,49.3,11.1,49.3
				s-8-61.4-3.1-58.8c4.9,2.7,15,53,15,53s-6.2-61,0-58.1c3.5,1.6,7,29.8,9.4,53.8c0.4-21,1.4-44,4.3-44.3c5.3-0.4,8,70.7,8,70.7
				s-2.7-80,2.7-77.6c5.3,2.4,8.4,77.1,8.4,77.1s2.7-65.4,6.6-65.2c4,0.2,4.4,61.7,4.4,61.7s0-68.5,4.9-68.5
				c4.8,0,7.5,67.9,7.5,69.4c-0.1-1.4-2.6-68,3.5-65.8c6.2,2.2,12.8,67.2,12.8,67.2s-4-77.4,0-75.8c4,1.6,11.5,66.5,11.5,66.5
				s-0.4-62.3,3.5-60.6c4,1.8,7.5,58.3,7.5,58.3s1.8-66.3,5.3-61.4c3.5,4.9,7.1,63.2,7.1,63.2s-1.8-45.5,2.2-42.4
				c4,3.1,7.1,36.7,7.1,36.7s-3.5-53,0-48.4c3.5,4.6,11.1,49.3,11.1,49.3s-8-61.4-3.1-58.8c4.9,2.7,15,53,15,53s-6.2-61,0-58.1
				c3.5,1.6,7,29.8,9.4,53.8c0.4-21,1.4-44,4.3-44.3c5.3-0.4,8,70.7,8,70.7s-2.7-80,2.7-77.6c5.3,2.4,8.4,77.1,8.4,77.1
				s2.7-65.4,6.6-65.2c4,0.2,4.4,61.7,4.4,61.7s0-68.5,4.9-68.5c4.8,0,7.5,67.9,7.5,69.4c-0.1-1.4-2.6-68,3.5-65.8
				c6.2,2.2,12.8,67.2,12.8,67.2s-4-77.4,0-75.8c4,1.6,11.5,66.5,11.5,66.5s-0.4-62.3,3.5-60.6c4,1.8,7.5,58.3,7.5,58.3
				s1.8-66.3,5.3-61.4c3.5,4.9,7.1,63.2,7.1,63.2s-1.8-45.5,2.2-42.4c4,3.1,7.1,36.7,7.1,36.7s-3.5-53,0-48.4
				c3.5,4.6,11.1,49.3,11.1,49.3s-8-61.4-3.1-58.8c4.9,2.7,15,53,15,53s-6.2-61,0-58.1c6.2,2.9,12.4,114.1,12.4,114.1H282.5h-3.1
				H142.8h-3.1H0.1C0.1,301.9-0.8,197.8,4.5,197.3z"/>
			<path fill="#96BE3D" d="M417.7,223.4c-5.3-0.4-8,70.7-8,70.7s2.7-80-2.7-77.6c-5.3,2.4-8.4,77.1-8.4,77.1s-2.7-65.4-6.6-65.2
				c-4,0.2-4.4,61.7-4.4,61.7s0-68.5-4.9-68.5c-4.8,0-7.5,67.9-7.5,69.4c0.1-1.4,2.6-68-3.5-65.8c-6.2,2.2-12.8,67.2-12.8,67.2
				s4-77.4,0-75.8c-4,1.6-11.5,66.5-11.5,66.5s0.4-62.3-3.5-60.6c-4,1.8-7.5,58.3-7.5,58.3s-1.8-66.3-5.3-61.4
				c-3.5,4.9-7.1,63.2-7.1,63.2s1.8-45.5-2.2-42.4c-4,3.1-7.1,36.7-7.1,36.7s3.5-53,0-48.4c-3.5,4.6-11.1,49.3-11.1,49.3
				s8-61.4,3.1-58.8c-4.9,2.7-15,53-15,53s6.2-61,0-58.1c-3.5,1.6-7,29.8-9.4,53.8c-0.4-21-1.4-44-4.3-44.3c-5.3-0.4-8,70.7-8,70.7
				s2.7-80-2.7-77.6c-5.3,2.4-8.4,77.1-8.4,77.1s-2.7-65.4-6.6-65.2c-4,0.2-4.4,61.7-4.4,61.7s0-68.5-4.9-68.5
				c-4.8,0-7.5,67.9-7.5,69.4c0.1-1.4,2.6-68-3.5-65.8c-6.2,2.2-12.8,67.2-12.8,67.2s4-77.4,0-75.8c-4,1.6-11.5,66.5-11.5,66.5
				s0.4-62.3-3.5-60.6s-7.5,58.3-7.5,58.3s-1.8-66.3-5.3-61.4c-3.5,4.9-7.1,63.2-7.1,63.2s1.8-45.5-2.2-42.4
				c-4,3.1-7.1,36.7-7.1,36.7s3.5-53,0-48.4c-3.5,4.6-11.1,49.3-11.1,49.3s8-61.4,3.1-58.8c-4.9,2.7-15,53-15,53s6.2-61,0-58.1
				c-3.5,1.6-7,29.8-9.4,53.8c-0.4-21-1.4-44-4.3-44.3c-5.3-0.4-8,70.7-8,70.7s2.7-80-2.7-77.6c-5.3,2.4-8.4,77.1-8.4,77.1
				s-2.7-65.4-6.6-65.2c-4,0.2-4.4,61.7-4.4,61.7s0-68.5-4.9-68.5c-4.8,0-7.5,67.9-7.5,69.4c0.1-1.4,2.6-68-3.5-65.8
				c-6.2,2.2-12.8,67.2-12.8,67.2s4-77.4,0-75.8c-4,1.6-11.5,66.5-11.5,66.5s0.4-62.3-3.5-60.6S57,280.9,57,280.9
				s-1.8-66.3-5.3-61.4c-3.5,4.9-7.1,63.2-7.1,63.2s1.8-45.5-2.2-42.4c-4,3.1-7.1,36.7-7.1,36.7s3.5-53,0-48.4
				c-3.5,4.6-11.1,49.3-11.1,49.3s8-61.4,3.1-58.8c-4.9,2.7-15,53-15,53s6.2-61,0-58.1c-6.2,2.9-12.4,88-12.4,88h139.7h3.1h136.6
				h3.1h139.7C422.1,301.9,423,223.8,417.7,223.4z"/>
		</g>
	</g>
	<rect y="288.5" fill="#67C9F3" width="842" height="306.8"/>
	<g>
		<g>
			<path fill="#88D2F5" d="M177,427.6c-102,2-168.1,16.1-111.6,35.9s343.6,9.1,359.6-5.2S279,425.6,177,427.6z"/>
			<path fill="#88D2F5" d="M258,336.9c-24-18.7-258-22-258-22v47.6C0,362.5,282,355.6,258,336.9z M202.9,341.9
				c-7.5,6.7-142.6,11.8-169.2,2.4c-26.6-9.3,4.5-16,52.5-16.9S210.5,335.1,202.9,341.9z"/>
			<path fill="#88D2F5" d="M544,362.5c18-13,235.6-24.8,298.1-28l0-12.9c0,0-557.1,15.3-620.1,52.6c-63,37.3,620,11.5,620,11.5
				l0-16.6C774.5,370.7,525.8,375.7,544,362.5z"/>
		</g>
	</g>
	<g>
		<g>
			<path fill="#567033" d="M837.6,470.4c-5.3-0.4-8,70.7-8,70.7s2.7-80-2.7-77.6c-5.3,2.4-8.4,77.1-8.4,77.1s-2.7-65.4-6.6-65.2
				c-4,0.2-4.4,61.7-4.4,61.7s0-68.5-4.9-68.5c-4.8,0-7.5,67.9-7.5,69.4c0.1-1.4,2.6-68-3.5-65.8c-6.2,2.2-12.8,67.2-12.8,67.2
				s4-77.4,0-75.8c-4,1.6-11.5,66.5-11.5,66.5s0.4-62.3-3.5-60.6c-4,1.8-7.5,58.3-7.5,58.3s-1.8-66.3-5.3-61.4
				c-3.5,4.9-7.1,63.2-7.1,63.2s1.8-45.5-2.2-42.4c-4,3.1-7.1,36.7-7.1,36.7s3.5-53,0-48.4c-3.5,4.6-11.1,49.3-11.1,49.3
				s8-61.4,3.1-58.8c-4.9,2.7-15,53-15,53s6.2-61,0-58.1c-3.5,1.6-7,29.8-9.4,53.8c-0.4-21-1.4-44-4.3-44.3c-5.3-0.4-8,70.7-8,70.7
				s2.7-80-2.7-77.6c-5.3,2.4-8.4,77.1-8.4,77.1s-2.7-65.4-6.6-65.2c-4,0.2-4.4,61.7-4.4,61.7s0-68.5-4.9-68.5
				c-4.8,0-7.5,67.9-7.5,69.4c0.1-1.4,2.6-68-3.5-65.8c-6.2,2.2-12.8,67.2-12.8,67.2s4-77.4,0-75.8c-4,1.6-11.5,66.5-11.5,66.5
				s0.4-62.3-3.5-60.6c-4,1.8-7.5,58.3-7.5,58.3s-1.8-66.3-5.3-61.4c-3.5,4.9-7.1,63.2-7.1,63.2s1.8-45.5-2.2-42.4
				c-4,3.1-7.1,36.7-7.1,36.7s3.5-53,0-48.4c-3.5,4.6-11.1,49.3-11.1,49.3s8-61.4,3.1-58.8c-4.9,2.7-15,53-15,53s6.2-61,0-58.1
				c-3.5,1.6-7,29.8-9.4,53.8c-0.4-21-1.4-44-4.3-44.3c-5.3-0.4-8,70.7-8,70.7s2.7-80-2.7-77.6c-5.3,2.4-8.4,77.1-8.4,77.1
				s-2.7-65.4-6.6-65.2c-4,0.2-4.4,61.7-4.4,61.7s0-68.5-4.9-68.5c-4.8,0-7.5,67.9-7.5,69.4c0.1-1.4,2.6-68-3.5-65.8
				c-6.2,2.2-12.8,67.2-12.8,67.2s4-77.4,0-75.8c-4,1.6-11.5,66.5-11.5,66.5s0.4-62.3-3.5-60.6c-4,1.8-7.5,58.3-7.5,58.3
				s-1.8-66.3-5.3-61.4s-7.1,63.2-7.1,63.2s1.8-45.5-2.2-42.4c-4,3.1-7.1,36.7-7.1,36.7s3.5-53,0-48.4c-3.5,4.6-11.1,49.3-11.1,49.3
				s8-61.4,3.1-58.8c-4.9,2.7-15,53-15,53s6.2-61,0-58.1c-6.2,2.9-12.4,114.1-12.4,114.1h139.7h3.1h136.6h3.1H842
				C842,575,842.9,470.9,837.6,470.4z"/>
			<path fill="#6B893A" d="M424.4,492c5.3-0.4,8,70.7,8,70.7s-2.7-80,2.7-77.6c5.3,2.4,8.4,77.1,8.4,77.1s2.7-65.4,6.6-65.2
				c4,0.2,4.4,61.7,4.4,61.7s0-68.5,4.9-68.5c4.8,0,7.5,67.9,7.5,69.4c-0.1-1.4-2.6-68,3.5-65.8c6.2,2.2,12.8,67.2,12.8,67.2
				s-4-77.4,0-75.8c4,1.6,11.5,66.5,11.5,66.5s-0.4-62.3,3.5-60.6c4,1.8,7.5,58.3,7.5,58.3s1.8-66.3,5.3-61.4
				c3.5,4.9,7.1,63.2,7.1,63.2s-1.8-45.5,2.2-42.4c4,3.1,7.1,36.7,7.1,36.7s-3.5-53,0-48.4c3.5,4.6,11.1,49.3,11.1,49.3
				s-8-61.4-3.1-58.8c4.9,2.7,15,53,15,53s-6.2-61,0-58.1c3.5,1.6,7,29.8,9.4,53.8c0.4-21,1.4-44,4.3-44.3c5.3-0.4,8,70.7,8,70.7
				s-2.7-80,2.7-77.6c5.3,2.4,8.4,77.1,8.4,77.1s2.7-65.4,6.6-65.2c4,0.2,4.4,61.7,4.4,61.7s0-68.5,4.9-68.5
				c4.8,0,7.5,67.9,7.5,69.4c-0.1-1.4-2.6-68,3.5-65.8c6.2,2.2,12.8,67.2,12.8,67.2s-4-77.4,0-75.8c4,1.6,11.5,66.5,11.5,66.5
				s-0.4-62.3,3.5-60.6c4,1.8,7.5,58.3,7.5,58.3s1.8-66.3,5.3-61.4c3.5,4.9,7.1,63.2,7.1,63.2s-1.8-45.5,2.2-42.4
				c4,3.1,7.1,36.7,7.1,36.7s-3.5-53,0-48.4c3.5,4.6,11.1,49.3,11.1,49.3s-8-61.4-3.1-58.8c4.9,2.7,15,53,15,53s-6.2-61,0-58.1
				c3.5,1.6,7,29.8,9.4,53.8c0.4-21,1.4-44,4.3-44.3c5.3-0.4,8,70.7,8,70.7s-2.7-80,2.7-77.6c5.3,2.4,8.4,77.1,8.4,77.1
				s2.7-65.4,6.6-65.2c4,0.2,4.4,61.7,4.4,61.7s0-68.5,4.9-68.5c4.8,0,7.5,67.9,7.5,69.4c-0.1-1.4-2.6-68,3.5-65.8
				c6.2,2.2,12.8,67.2,12.8,67.2s-4-77.4,0-75.8c4,1.6,11.5,66.5,11.5,66.5s-0.4-62.3,3.5-60.6c4,1.8,7.5,58.3,7.5,58.3
				s1.8-66.3,5.3-61.4c3.5,4.9,7.1,63.2,7.1,63.2s-1.8-45.5,2.2-42.4c4,3.1,7.1,36.7,7.1,36.7s-3.5-53,0-48.4
				c3.5,4.6,11.1,49.3,11.1,49.3s-8-61.4-3.1-58.8c4.9,2.7,15,53,15,53s-6.2-61,0-58.1c6.2,2.9,12.4,114.1,12.4,114.1H702.4h-3.1
				H562.7h-3.1H419.9C419.9,596.6,419.1,492.5,424.4,492z"/>
		</g>
		<g>
			<path fill="#567033" d="M417.7,470.4c-5.3-0.4-8,70.7-8,70.7s2.7-80-2.7-77.6c-5.3,2.4-8.4,77.1-8.4,77.1s-2.7-65.4-6.6-65.2
				c-4,0.2-4.4,61.7-4.4,61.7s0-68.5-4.9-68.5c-4.8,0-7.5,67.9-7.5,69.4c0.1-1.4,2.6-68-3.5-65.8c-6.2,2.2-12.8,67.2-12.8,67.2
				s4-77.4,0-75.8c-4,1.6-11.5,66.5-11.5,66.5s0.4-62.3-3.5-60.6c-4,1.8-7.5,58.3-7.5,58.3s-1.8-66.3-5.3-61.4s-7.1,63.2-7.1,63.2
				s1.8-45.5-2.2-42.4c-4,3.1-7.1,36.7-7.1,36.7s3.5-53,0-48.4c-3.5,4.6-11.1,49.3-11.1,49.3s8-61.4,3.1-58.8c-4.9,2.7-15,53-15,53
				s6.2-61,0-58.1c-3.5,1.6-7,29.8-9.4,53.8c-0.4-21-1.4-44-4.3-44.3c-5.3-0.4-8,70.7-8,70.7s2.7-80-2.7-77.6
				c-5.3,2.4-8.4,77.1-8.4,77.1s-2.7-65.4-6.6-65.2c-4,0.2-4.4,61.7-4.4,61.7s0-68.5-4.9-68.5c-4.8,0-7.5,67.9-7.5,69.4
				c0.1-1.4,2.6-68-3.5-65.8c-6.2,2.2-12.8,67.2-12.8,67.2s4-77.4,0-75.8c-4,1.6-11.5,66.5-11.5,66.5s0.4-62.3-3.5-60.6
				c-4,1.8-7.5,58.3-7.5,58.3s-1.8-66.3-5.3-61.4s-7.1,63.2-7.1,63.2s1.8-45.5-2.2-42.4c-4,3.1-7.1,36.7-7.1,36.7s3.5-53,0-48.4
				c-3.5,4.6-11.1,49.3-11.1,49.3s8-61.4,3.1-58.8c-4.9,2.7-15,53-15,53s6.2-61,0-58.1c-3.5,1.6-7,29.8-9.4,53.8
				c-0.4-21-1.4-44-4.3-44.3c-5.3-0.4-8,70.7-8,70.7s2.7-80-2.7-77.6c-5.3,2.4-8.4,77.1-8.4,77.1s-2.7-65.4-6.6-65.2
				c-4,0.2-4.4,61.7-4.4,61.7s0-68.5-4.9-68.5c-4.8,0-7.5,67.9-7.5,69.4c0.1-1.4,2.6-68-3.5-65.8c-6.2,2.2-12.8,67.2-12.8,67.2
				s4-77.4,0-75.8c-4,1.6-11.5,66.5-11.5,66.5s0.4-62.3-3.5-60.6c-4,1.8-7.5,58.3-7.5,58.3s-1.8-66.3-5.3-61.4
				c-3.5,4.9-7.1,63.2-7.1,63.2s1.8-45.5-2.2-42.4c-4,3.1-7.1,36.7-7.1,36.7s3.5-53,0-48.4c-3.5,4.6-11.1,49.3-11.1,49.3
				s8-61.4,3.1-58.8c-4.9,2.7-15,53-15,53s6.2-61,0-58.1C6.2,463.8,0,575,0,575h139.7h3.1h136.6h3.1h139.7
				C422.1,575,423,470.9,417.7,470.4z"/>
			<path fill="#6B893A" d="M4.5,492c5.3-0.4,8,70.7,8,70.7s-2.7-80,2.7-77.6c5.3,2.4,8.4,77.1,8.4,77.1s2.7-65.4,6.6-65.2
				c4,0.2,4.4,61.7,4.4,61.7s0-68.5,4.9-68.5c4.8,0,7.5,67.9,7.5,69.4c-0.1-1.4-2.6-68,3.5-65.8C56.6,496,63.3,561,63.3,561
				s-4-77.4,0-75.8c4,1.6,11.5,66.5,11.5,66.5s-0.4-62.3,3.5-60.6c4,1.8,7.5,58.3,7.5,58.3s1.8-66.3,5.3-61.4
				c3.5,4.9,7.1,63.2,7.1,63.2s-1.8-45.5,2.2-42.4c4,3.1,7.1,36.7,7.1,36.7s-3.5-53,0-48.4c3.5,4.6,11.1,49.3,11.1,49.3
				s-8-61.4-3.1-58.8c4.9,2.7,15,53,15,53s-6.2-61,0-58.1c3.5,1.6,7,29.8,9.4,53.8c0.4-21,1.4-44,4.3-44.3c5.3-0.4,8,70.7,8,70.7
				s-2.7-80,2.7-77.6c5.3,2.4,8.4,77.1,8.4,77.1s2.7-65.4,6.6-65.2c4,0.2,4.4,61.7,4.4,61.7s0-68.5,4.9-68.5
				c4.8,0,7.5,67.9,7.5,69.4c-0.1-1.4-2.6-68,3.5-65.8c6.2,2.2,12.8,67.2,12.8,67.2s-4-77.4,0-75.8c4,1.6,11.5,66.5,11.5,66.5
				s-0.4-62.3,3.5-60.6c4,1.8,7.5,58.3,7.5,58.3s1.8-66.3,5.3-61.4c3.5,4.9,7.1,63.2,7.1,63.2s-1.8-45.5,2.2-42.4
				c4,3.1,7.1,36.7,7.1,36.7s-3.5-53,0-48.4c3.5,4.6,11.1,49.3,11.1,49.3s-8-61.4-3.1-58.8c4.9,2.7,15,53,15,53s-6.2-61,0-58.1
				c3.5,1.6,7,29.8,9.4,53.8c0.4-21,1.4-44,4.3-44.3c5.3-0.4,8,70.7,8,70.7s-2.7-80,2.7-77.6c5.3,2.4,8.4,77.1,8.4,77.1
				s2.7-65.4,6.6-65.2c4,0.2,4.4,61.7,4.4,61.7s0-68.5,4.9-68.5c4.8,0,7.5,67.9,7.5,69.4c-0.1-1.4-2.6-68,3.5-65.8
				c6.2,2.2,12.8,67.2,12.8,67.2s-4-77.4,0-75.8c4,1.6,11.5,66.5,11.5,66.5s-0.4-62.3,3.5-60.6c4,1.8,7.5,58.3,7.5,58.3
				s1.8-66.3,5.3-61.4s7.1,63.2,7.1,63.2s-1.8-45.5,2.2-42.4c4,3.1,7.1,36.7,7.1,36.7s-3.5-53,0-48.4c3.5,4.6,11.1,49.3,11.1,49.3
				s-8-61.4-3.1-58.8c4.9,2.7,15,53,15,53s-6.2-61,0-58.1c6.2,2.9,12.4,114.1,12.4,114.1H282.5h-3.1H142.8h-3.1H0.1
				C0.1,596.6-0.8,492.5,4.5,492z"/>
		</g>
	</g>
</g>
</svg>
